<svg xmlns="http://www.w3.org/2000/svg" width="256" height="256" viewBox="0 0 256 256" fill="none"><g transform="translate(128 44)"><rect x="-6" y="-20" width="12" height="40" rx="3" fill="#E97627"/><rect x="-20" y="-6" width="40" height="12" rx="3" fill="#E97627"/></g><g transform="translate(128 92)"><rect x="-6" y="-20" width="12" height="40" rx="3" fill="#1F447A"/><rect x="-20" y="-6" width="40" height="12" rx="3" fill="#1F447A"/></g><g transform="translate(80 92)"><rect x="-6" y="-20" width="12" height="40" rx="3" fill="#E97627"/><rect x="-20" y="-6" width="40" height="12" rx="3" fill="#E97627"/></g><g transform="translate(176 92)"><rect x="-6" y="-20" width="12" height="40" rx="3" fill="#5B9BD5"/><rect x="-20" y="-6" width="40" height="12" rx="3" fill="#5B9BD5"/></g><g transform="translate(128 140)"><rect x="-6" y="-20" width="12" height="40" rx="3" fill="#1F447A"/><rect x="-20" y="-6" width="40" height="12" rx="3" fill="#1F447A"/></g><g transform="translate(80 140)"><rect x="-6" y="-20" width="12" height="40" rx="3" fill="#5B9BD5"/><rect x="-20" y="-6" width="40" height="12" rx="3" fill="#5B9BD5"/></g><g transform="translate(176 140)"><rect x="-6" y="-20" width="12" height="40" rx="3" fill="#E97627"/><rect x="-20" y="-6" width="40" height="12" rx="3" fill="#E97627"/></g><g transform="translate(128 188)"><rect x="-6" y="-20" width="12" height="40" rx="3" fill="#1F447A"/><rect x="-20" y="-6" width="40" height="12" rx="3" fill="#1F447A"/></g><g transform="translate(128 20)"><rect x="-3.5" y="-10" width="7" height="20" rx="2" fill="#5B9BD5"/><rect x="-10" y="-3.5" width="20" height="7" rx="2" fill="#5B9BD5"/></g><g transform="translate(56 92)"><rect x="-3.5" y="-10" width="7" height="20" rx="2" fill="#5B9BD5"/><rect x="-10" y="-3.5" width="20" height="7" rx="2" fill="#5B9BD5"/></g><g transform="translate(200 92)"><rect x="-3.5" y="-10" width="7" height="20" rx="2" fill="#E97627"/><rect x="-10" y="-3.5" width="20" height="7" rx="2" fill="#E97627"/></g><g transform="translate(56 140)"><rect x="-3.5" y="-10" width="7" height="20" rx="2" fill="#1F447A"/><rect x="-10" y="-3.5" width="20" height="7" rx="2" fill="#1F447A"/></g><g transform="translate(200 140)"><rect x="-3.5" y="-10" width="7" height="20" rx="2" fill="#5B9BD5"/><rect x="-10" y="-3.5" width="20" height="7" rx="2" fill="#5B9BD5"/></g><g transform="translate(128 212)"><rect x="-3.5" y="-10" width="7" height="20" rx="2" fill="#E97627"/><rect x="-10" y="-3.5" width="20" height="7" rx="2" fill="#E97627"/></g></svg>