<svg xmlns="http://www.w3.org/2000/svg" width="256" height="256" viewBox="0 0 256 256" fill="none">
  <g transform="translate(24.000 232.000) scale(0.173333 -0.173333)">
    <path d="M600 1200C519 1200 441 1184 366 1153C295 1122 231 1079 176 1024C121 969 78 905 47 834C16 759 0 681 0 600C0 519 16 441 47 366C78 295 121 231 176 176C231 121 295 78 366 47C441 16 519 0 600 0C681 0 759 16 834 47C905 78 969 121 1024 176C1079 231 1122 295 1153 366C1184 441 1200 519 1200 600C1200 681 1184 759 1153 834C1122 905 1079 969 1024 1024C969 1079 905 1122 834 1153C759 1184 681 1200 600 1200ZM926 480V433H625V480H926ZM929 918 889 870C888 867 886 863 884 860C881 851 878 840 877 828C876 811 877 791 880 770C887 725 884 682 871 643C858 603 838 572 809 549C778 524 743 512 702 512H593C580 511 568 510 556 508C538 505 522 500 508 493C489 485 474 475 462 462L272 271C259 259 251 252 248 251C245 249 242 249 241 251C240 252 239 254 239 255L721 849C718 875 723 897 735 915C746 931 762 942 781 948C800 953 820 952 839 945C858 938 874 925 885 906L929 918ZM809 900C804 900 800 899 796 896C792 893 789 890 787 886C785 881 785 877 786 872C787 867 789 863 792 860C795 856 799 854 805 853C810 852 814 853 819 855C823 856 826 859 829 863C832 867 833 872 833 877C833 883 831 888 826 893C821 898 816 900 809 900Z" fill="#00BFA5"/>
  </g>
</svg>