<svg xmlns="http://www.w3.org/2000/svg" width="256" height="256" viewBox="0 0 256 256" fill="none">
  <g transform="translate(24.044 231.974) scale(0.173290 -0.173290)">
    <path d="M337 698H338C338 683 340 671 343 662C346 652 350 643 355 634C357 631 358 627 358 624C358 621 356 617 351 613L325 596C322 594 319 593 315 593C311 592 307 594 303 598C298 604 293 611 289 618C284 625 280 632 276 640C245 603 206 585 159 585C125 585 98 595 79 614C60 633 50 659 50 691C50 725 62 752 87 773C111 794 143 804 184 804C196 804 210 803 226 801C237 799 253 796 272 792V821C272 851 266 872 253 885C240 897 219 903 188 903C173 903 159 901 145 898C129 894 115 890 102 885C97 882 93 880 88 879C86 878 84 878 82 878C76 878 73 882 73 891V910C73 917 74 921 76 924C79 928 83 931 87 932C101 939 118 946 138 951C158 956 179 958 200 958C247 958 282 947 304 926C326 904 337 871 337 828V698ZM176 638C189 638 203 640 218 645C232 650 244 658 255 670C262 678 266 687 269 696C272 707 273 718 273 730V747C261 750 249 753 236 754C223 755 211 756 199 756C172 756 153 751 140 741C127 730 120 715 120 696C120 676 125 661 134 652C143 643 157 638 176 638ZM531 594H497C490 594 485 595 482 598C479 601 476 606 473 614L379 923C378 928 377 933 377 940C376 946 379 949 385 949H424C432 948 437 947 440 945C443 942 445 937 448 929L515 665L577 929C579 937 582 942 585 945C590 948 595 949 601 949H633C640 949 646 948 649 945C652 942 655 937 656 929L719 662L788 929C791 937 793 942 796 945C801 948 806 949 812 948H849C856 949 859 946 859 939L858 932C857 929 856 925 855 922L759 614C757 606 754 601 751 598C746 595 741 594 736 594H701C694 594 688 596 685 599C682 602 679 607 678 614L616 871L554 614C552 606 550 601 547 598C544 595 538 594 531 594ZM1009 584C988 584 968 586 948 591C927 596 912 601 902 607C895 610 891 614 890 618C888 621 887 625 887 629V650C887 658 890 662 897 662C899 662 901 662 904 661L914 657C928 650 943 646 959 643C974 640 990 638 1005 638C1030 638 1050 642 1063 651C1070 655 1075 660 1079 667C1082 674 1084 681 1084 689C1085 700 1081 709 1074 717C1067 724 1053 731 1033 738L975 756C946 765 924 779 911 796C898 813 891 833 891 854C891 871 895 886 902 899C909 912 919 923 931 932C943 941 957 947 972 952C987 957 1004 959 1023 959C1033 959 1042 958 1049 957C1055 956 1064 955 1075 953C1085 950 1093 948 1098 946C1105 944 1111 942 1116 940C1120 937 1124 934 1127 930C1130 925 1131 921 1130 916V897C1130 889 1127 885 1122 885C1116 885 1111 886 1106 889C1081 900 1056 906 1029 905C1006 905 988 901 976 894C964 886 958 874 958 858C958 847 962 837 970 830C978 822 992 815 1013 808L1070 790C1099 781 1120 768 1132 752C1144 735 1150 717 1150 696C1150 679 1147 663 1140 649C1133 635 1123 623 1111 614C1099 605 1084 597 1066 592C1048 587 1029 584 1009 584ZM1085 390C1021 343 944 306 854 279C769 254 684 241 599 241C486 241 378 261 275 301C175 340 85 396 5 468C1 471 -1 475 0 479C1 483 3 486 7 487C10 488 14 488 19 485C105 435 198 396 298 369C402 341 507 327 613 327C687 327 762 335 839 350C918 366 993 389 1066 420C1073 423 1079 424 1085 421C1091 418 1094 413 1095 407C1095 400 1092 395 1085 390ZM1140 452C1133 461 1110 466 1072 465C1051 464 1023 462 986 457C979 456 976 458 975 463C974 467 977 471 983 475C1006 491 1034 502 1068 508C1096 512 1124 512 1151 509C1176 506 1191 502 1196 495C1201 488 1201 473 1198 448C1195 421 1187 395 1175 369C1160 338 1142 313 1121 295C1116 290 1111 289 1107 291C1103 292 1102 296 1105 302C1118 336 1128 363 1135 384C1145 420 1147 443 1140 452Z" fill="#232F3E"/>
  </g>
</svg>