<svg xmlns="http://www.w3.org/2000/svg" width="256" height="256" viewBox="0 0 256 256" fill="none">
  <g transform="translate(24.000 232.000) scale(0.173333 -0.173333)">
    <path d="M116 592V540H115L114 539C100 530 84 525 67 524C56 525 48 527 43 532C38 537 36 544 36 555C36 568 39 576 44 581C49 586 59 589 73 590L116 592ZM187 528C186 533 183 535 178 534H174C169 533 165 532 161 532C156 531 153 532 152 534C151 536 150 540 149 545V681C149 684 148 687 145 690L143 691C137 694 127 698 113 701L112 702C93 706 73 707 54 705C42 704 33 702 27 700C22 699 20 696 20 692L23 682C24 677 27 675 30 674C31 674 35 674 40 675L43 676C58 679 74 680 89 677C96 676 103 675 108 672L114 669V616L74 615C49 614 30 609 18 599C6 588 0 573 0 553C0 534 5 519 16 510C27 501 41 496 60 496C81 496 100 503 116 516L118 517L119 516C123 506 130 500 140 498C147 496 154 495 161 496C170 497 177 499 183 502C188 505 191 508 190 513C189 518 188 523 187 528ZM750 497H732C729 497 727 498 726 500C724 501 723 504 723 507V682C722 685 723 688 725 690C726 691 729 692 732 692H748C751 692 754 691 756 690C757 689 758 686 758 683V675L761 677C768 685 776 691 785 694C794 697 804 697 813 695C815 694 816 693 817 692C818 691 818 690 818 689L815 669C814 666 812 664 809 663L796 665C790 665 784 663 777 659C770 655 764 650 759 643V507C759 504 758 501 757 500C755 498 753 497 750 497ZM636 628V616H551C552 656 566 676 594 676C622 676 636 660 636 628ZM596 703C571 703 551 694 536 677C520 658 512 631 512 595C512 526 543 492 606 492C616 492 627 493 638 495L643 496C648 498 654 500 659 502C664 504 666 507 666 511C665 516 664 521 663 526C661 531 658 533 654 533L636 529C626 526 616 525 606 525C585 525 571 530 563 540C554 550 550 566 550 588V591H664C667 592 669 594 670 598L671 621C671 647 665 667 652 682C639 696 621 703 596 703ZM865 418H863C857 418 851 418 846 419C843 420 841 423 842 430L843 441C844 446 845 448 848 448L864 446C875 447 884 449 891 454C898 458 903 465 907 475L918 504L850 685V688C849 689 850 690 851 691C852 692 853 692 854 692H880C884 692 886 690 887 687L935 549L984 686C985 690 988 692 992 692H1014C1015 692 1016 692 1018 691C1019 690 1019 689 1019 688C1019 687 1019 686 1018 685L942 480C934 457 924 441 912 432C900 423 884 418 865 418ZM1194 497H1172C1167 497 1164 499 1161 503L1119 568L1077 503C1075 499 1072 497 1067 497H1045C1043 497 1042 498 1041 499C1040 500 1039 501 1039 503C1039 504 1039 506 1040 508L1100 598L1045 683C1044 684 1044 686 1044 687C1044 688 1045 690 1046 691C1047 692 1048 693 1050 693H1070C1075 693 1078 691 1080 688L1119 628L1159 687C1161 691 1164 693 1168 693H1189C1190 693 1192 692 1193 691C1194 690 1195 688 1195 687C1195 686 1195 684 1194 683L1139 598L1198 508C1199 507 1200 505 1200 503C1200 501 1199 500 1198 499C1197 498 1195 497 1194 497ZM290 497C280 497 271 498 263 501C256 504 250 508 245 513C240 518 236 525 235 534C234 540 233 549 233 562V762C233 763 233 764 234 765C241 773 250 779 260 782H262C264 782 266 781 267 780C268 779 269 776 269 773V560C269 549 271 541 276 536C281 531 287 528 296 528L303 529C309 530 314 531 319 533C320 533 322 533 323 533C326 533 329 531 330 527L334 512C334 509 332 506 327 504C315 499 303 497 290 497ZM478 521 476 527C475 531 473 533 469 533C468 533 467 533 466 533C459 530 451 529 443 528H442C433 528 427 531 423 536C418 541 416 549 416 560L417 666H460C462 666 464 667 466 668C467 669 468 671 468 674V687C468 690 467 692 466 693C464 694 462 695 460 695H417V760C417 763 416 766 415 767C413 768 411 769 409 769H407C401 766 396 763 391 760C388 758 386 756 383 754C382 753 382 751 382 750L381 695H359C356 695 354 694 353 693C351 691 350 689 350 687V674C350 671 351 668 352 667C353 666 356 665 359 665H380L378 562C378 549 379 540 380 534C382 525 386 518 391 512C400 502 415 497 436 497C449 497 461 499 473 504C478 506 480 509 480 512C480 514 479 517 478 521Z" fill="#FF6D00"/>
  </g>
</svg>