<svg xmlns="http://www.w3.org/2000/svg" width="256" height="256" viewBox="0 0 256 256" fill="none">
  <path d="M84 32h88l40 40v152H84z" fill="#21A366"/>
  <path d="M172 32v40h40" fill="#33C481"/>
  <path d="M44 60h92v136H44z" fill="#107C41"/>
  <g transform="translate(71.597 178.000) scale(0.061621 -0.061621)">
<path d="M1020 762 1538 0H1137L788 510L442 0H39L557 762L59 1493H461L788 1012L1114 1493H1518Z" transform="translate(0.000 0)" fill="#ffffff"/>
</g>
  <rect x="116" y="156" width="92" height="30" rx="8" fill="#185C37"/>
  <g transform="translate(113.839 202.000) scale(0.016075 -0.016075)">
<path d="M10 1493H397L793 391L1188 1493H1575L1022 0H563Z" transform="translate(0.000 0)" fill="#ffffff"/>
<path d="M786 915Q877 915 924.0 955.0Q971 995 971 1073Q971 1150 924.0 1190.5Q877 1231 786 1231H573V915ZM799 262Q915 262 973.5 311.0Q1032 360 1032 459Q1032 556 974.0 604.5Q916 653 799 653H573V262ZM1157 799Q1281 763 1349.0 666.0Q1417 569 1417 428Q1417 212 1271.0 106.0Q1125 0 827 0H188V1493H766Q1077 1493 1216.5 1399.0Q1356 1305 1356 1098Q1356 989 1305.0 912.5Q1254 836 1157 799Z" transform="translate(1585.000 0)" fill="#ffffff"/>
<path d="M1094 272H492L397 0H10L563 1493H1022L1575 0H1188ZM588 549H997L793 1143Z" transform="translate(3146.000 0)" fill="#ffffff"/>
</g>
  <path d="M172 32v40h40" stroke="#185C37" stroke-width="4"/>
</svg>