<svg xmlns="http://www.w3.org/2000/svg" width="256" height="256" viewBox="0 0 256 256" fill="none">
  <ellipse cx="128" cy="64" rx="62" ry="22" fill="#4F81BD"/>
  <path d="M66 64v86c0 12.2 27.8 22 62 22s62-9.8 62-22V64" fill="#7FA7D8"/>
  <path d="M66 64c0 12.2 27.8 22 62 22s62-9.8 62-22" stroke="#3E6B96" stroke-width="12" fill="none"/>
  <path d="M66 107c0 12.2 27.8 22 62 22s62-9.8 62-22" stroke="#3E6B96" stroke-width="10" fill="none" opacity=".55"/>
  <path d="M66 150c0 12.2 27.8 22 62 22s62-9.8 62-22" stroke="#3E6B96" stroke-width="10" fill="none" opacity=".4"/>
  <g transform="translate(51.636 177.124) scale(0.029687 -0.029687)">
<path d="M1227 1446V1130Q1104 1185 987.0 1213.0Q870 1241 766 1241Q628 1241 562.0 1203.0Q496 1165 496 1085Q496 1025 540.5 991.5Q585 958 702 934L866 901Q1115 851 1220.0 749.0Q1325 647 1325 459Q1325 212 1178.5 91.5Q1032 -29 731 -29Q589 -29 446.0 -2.0Q303 25 160 78V403Q303 327 436.5 288.5Q570 250 694 250Q820 250 887.0 292.0Q954 334 954 412Q954 482 908.5 520.0Q863 558 727 588L578 621Q354 669 250.5 774.0Q147 879 147 1057Q147 1280 291.0 1400.0Q435 1520 705 1520Q828 1520 958.0 1501.5Q1088 1483 1227 1446Z" transform="translate(0.000 0)" fill="#3E6B96"/>
<path d="M911 -27H881Q512 -27 307.0 177.0Q102 381 102 745Q102 1108 306.5 1314.0Q511 1520 870 1520Q1233 1520 1435.5 1316.0Q1638 1112 1638 745Q1638 493 1530.5 311.0Q1423 129 1221 37L1522 -299H1155ZM870 1241Q694 1241 597.0 1111.0Q500 981 500 745Q500 505 595.0 377.5Q690 250 870 250Q1047 250 1144.0 380.0Q1241 510 1241 745Q1241 981 1144.0 1111.0Q1047 1241 870 1241Z" transform="translate(1475.000 0)" fill="#3E6B96"/>
<path d="M188 1493H573V291H1249V0H188Z" transform="translate(3216.000 0)" fill="#3E6B96"/>
</g>
</svg>