<svg xmlns="http://www.w3.org/2000/svg" width="256" height="256" viewBox="0 0 256 256" fill="none">
  <g transform="translate(24.000 232.000) scale(0.173333 -0.173333)">
    <path d="M1074 916C1045 916 1019 907 996 889C973 871 958 848 951 821H807C776 821 748 811 725 791C702 771 687 746 682 716L677 684C674 669 667 657 656 647C644 637 630 632 614 632H564C557 659 543 682 520 700C497 717 471 726 442 726C413 726 387 717 364 700C341 682 327 659 320 632H249C242 659 227 682 204 700C181 717 155 726 126 726C103 726 82 720 63 709C44 698 28 682 17 663C6 644 0 623 0 600C0 577 6 556 17 537C28 518 44 502 63 491C82 480 103 474 126 474C155 474 181 483 204 501C227 518 242 541 249 568H320C327 541 341 518 364 501C387 483 413 474 442 474C471 474 497 483 520 501C543 518 557 541 564 568H614C630 568 644 563 656 553C667 543 674 531 677 516L682 484C687 454 702 429 725 409C748 389 776 379 807 379H825C832 352 847 329 870 311C893 293 918 284 947 284C970 284 992 290 1011 301C1030 312 1046 328 1057 347C1068 366 1074 388 1074 411C1074 434 1068 455 1057 474C1046 493 1030 509 1011 520C992 531 970 537 947 537C918 537 893 528 870 510C847 492 832 469 825 442H807C791 442 777 447 766 457C754 467 747 480 744 495L739 526C734 555 721 580 698 600C721 620 734 645 739 674L744 705C747 720 754 733 766 743C777 753 791 758 807 758H951C958 731 973 708 996 690C1019 672 1045 663 1074 663C1097 663 1118 669 1137 680C1156 691 1172 707 1183 726C1194 745 1200 767 1200 790C1200 813 1194 834 1183 853C1172 872 1156 888 1137 899C1118 910 1097 916 1074 916ZM1074 853C1091 853 1106 847 1119 835C1131 822 1137 807 1137 790C1137 772 1131 757 1119 745C1106 732 1091 726 1074 726C1057 726 1042 732 1030 745C1017 757 1011 772 1011 790C1011 807 1017 822 1030 835C1042 847 1057 853 1074 853ZM126 663C143 663 158 657 171 645C183 632 189 617 189 600C189 583 183 568 171 556C158 543 143 537 126 537C109 537 94 543 82 556C69 568 63 583 63 600C63 617 69 632 82 645C94 657 109 663 126 663ZM442 663C459 663 474 657 487 645C499 632 505 617 505 600C505 583 499 568 487 556C474 543 459 537 442 537C425 537 410 543 398 556C385 568 379 583 379 600C379 617 385 632 398 645C410 657 425 663 442 663ZM947 474C965 474 980 468 993 456C1005 443 1011 428 1011 411C1011 393 1005 378 993 366C980 353 965 347 948 347C930 347 915 353 903 366C890 378 884 393 884 411C884 428 890 443 903 456C915 468 930 474 947 474Z" fill="#EA4B71"/>
  </g>
</svg>