<svg xmlns="http://www.w3.org/2000/svg" width="256" height="256" viewBox="0 0 256 256" fill="none">
  <g transform="translate(24.000 231.978) scale(0.173297 -0.173297)">
    <path d="M1188 193 1031 325C1059 369 1080 416 1095 465C1110 517 1118 570 1118 623C1118 699 1103 772 1074 841C1045 908 1005 967 954 1019C902 1070 843 1110 776 1138C707 1167 634 1182 559 1182C483 1182 410 1167 341 1138C274 1110 215 1070 164 1019C112 967 72 908 44 841C15 772 0 699 0 623C0 547 15 475 44 406C72 339 112 279 164 228C215 177 274 137 341 108C410 79 483 64 559 64C618 64 675 73 731 91C784 108 834 133 881 166L1048 27L1055 22C1061 19 1067 18 1072 18C1080 19 1087 23 1094 30L1193 148C1193 148 1193 148 1194 149C1204 167 1202 182 1188 193ZM902 623C902 561 886 503 855 450C825 398 784 357 732 327C679 296 621 280 559 280C497 280 439 296 385 327C334 357 293 398 262 450C231 503 215 561 215 623C215 685 231 743 262 796C293 848 334 889 385 920C439 951 497 966 559 966C621 966 679 951 732 920C784 889 825 848 855 796C886 743 902 685 902 623ZM338 623C338 663 348 700 368 734C387 767 414 794 448 814C481 833 518 843 558 843C598 843 635 833 669 814C702 794 729 767 749 734C768 700 778 663 778 623C778 583 768 546 749 513C729 479 702 452 669 433C635 413 598 403 558 403C518 403 481 413 448 433C414 452 387 479 368 513C348 546 338 583 338 623Z" fill="#009845"/>
  </g>
</svg>